<?xml version="1.0" encoding="UTF-8" standalone="no"?>
<!-- Created with Inkscape (http://www.inkscape.org/) -->

<svg
   width="56.498928mm"
   height="56.49929mm"
   viewBox="0 0 56.498928 56.49929"
   version="1.1"
   id="svg1"
   xml:space="preserve"
   xmlns="http://www.w3.org/2000/svg"
   xmlns:svg="http://www.w3.org/2000/svg"><defs
     id="defs1" /><g
     id="layer1"
     transform="translate(-110.59639,89.334551)"><path
       id="path4-3"
       d="m 166.82967,-64.954708 -4.85061,-1.621345 c -0.59252,-2.50427 -1.57688,-4.856858 -2.89104,-6.985386 l 2.28142,-4.573381 c -1.56596,-2.06538 -3.40952,-3.908278 -5.47424,-5.473775 l -4.57376,2.281697 c -2.12815,-1.314904 -4.48027,-2.300009 -6.98427,-2.89245 l -1.62172,-4.849944 c -1.26567,-0.173355 -2.55686,-0.265262 -3.86998,-0.265262 -1.31341,0 -2.6043,0.09191 -3.87026,0.265262 l -1.62145,4.849944 c -2.5039,0.592441 -4.85648,1.577546 -6.98501,2.89245 l -4.57339,-2.281697 c -2.06537,1.565497 -3.90818,3.408395 -5.47302,5.473775 l 2.28133,4.573381 c -1.31491,2.128528 -2.30001,4.481116 -2.89171,6.985386 l -4.8507,1.621345 c -0.17297,1.265308 -0.26488,2.556857 -0.26488,3.86999 0,1.312754 0.0913,2.604302 0.26488,3.86961 l 4.8507,1.621353 c 0.59208,2.504731 1.5768,4.856854 2.89142,6.985375 l -2.28067,4.573383 c 1.56513,2.065381 3.40802,3.908288 5.4734,5.473878 l 4.57302,-2.2818 c 2.12852,1.31491 4.48111,2.30001 6.985,2.89254 l 1.62145,4.84948 c 1.26559,0.17374 2.55685,0.26564 3.87027,0.26564 1.31349,0 2.60393,-0.0919 3.87035,-0.26564 l 1.62135,-4.84948 c 2.50399,-0.59253 4.85649,-1.57763 6.98425,-2.89179 l 4.57377,2.28105 c 2.065,-1.56559 3.90828,-3.408497 5.47349,-5.473878 l -2.28067,-4.573383 c 1.31453,-2.128521 2.29852,-4.480644 2.89143,-6.985375 l 4.8506,-1.621353 c 0.17298,-1.265308 0.26488,-2.556856 0.26488,-3.86961 0,-1.313133 -0.0919,-2.604682 -0.26563,-3.86999 z m -27.9842,23.177035 c -10.66305,0 -19.30742,-8.643623 -19.30742,-19.307045 0,-10.663426 8.64437,-19.307421 19.30742,-19.307421 10.66268,0 19.30705,8.643995 19.30705,19.307421 0,10.663422 -8.64437,19.307045 -19.30705,19.307045 z"
       style="fill:#f9f9f9;fill-opacity:1;fill-rule:nonzero;stroke:none;stroke-width:1.93998;stroke-linecap:butt;stroke-linejoin:miter;stroke-miterlimit:4;stroke-dasharray:none;stroke-opacity:1" /><path
       id="path1-9"
       style="fill:#f9f9f9;stroke-width:0.999995"
       d="m 150.42748,-67.377943 c -1.21285,0.0034 -2.47359,0.07042 -3.01957,0.198236 -1.14016,0.266905 -2.3569,0.733899 -3.17795,1.219862 -0.89888,0.532019 -2.51214,2.0552 -3.19427,3.01559 -1.6868,2.374955 -2.68203,5.514377 -2.49844,7.882352 0.056,0.722122 0.0174,1.059302 -0.19496,1.702226 l -0.26454,0.801642 -0.10735,-0.430538 c -0.059,-0.236821 -0.13674,-0.612155 -0.17286,-0.833898 -0.0361,-0.221751 -0.12412,-0.608196 -0.14026,-0.657407 -0.0223,-0.06758 -0.062,-0.173213 -0.11122,-0.277241 -0.20367,-0.431154 -1.09528,-2.071839 -1.74644,-2.809017 -2.11195,-2.390967 -5.34227,-3.579908 -9.73026,-3.580582 -0.9525,-1.46e-4 -1.80853,0.04826 -1.90228,0.10764 -0.35961,0.227773 0.069,2.869844 0.73895,4.556543 0.9952,2.505274 2.47566,4.120479 4.88924,5.333545 2.34306,1.177629 4.65502,1.472743 7.33004,0.935373 l 0.41714,-0.08407 -0.0867,0.480189 c -0.0478,0.264102 -0.11509,1.777026 -0.14932,3.361691 l -0.0624,2.881147 -0.26817,-0.09786 c -0.14757,-0.05389 -0.63321,-0.09816 -1.07925,-0.09816 -1.31081,0 -2.19047,0.514559 -4.01003,2.345141 -0.59039,0.59395 -1.2736,1.24526 -1.7642,1.68774 h 16.65117 c -1.15595,-0.24812 -1.62416,-0.56068 -2.59703,-1.73414 -0.93491,-1.127696 -1.37995,-1.49148 -2.12407,-1.734851 -0.39965,-0.130724 -0.54634,-0.121833 -0.98973,0.05936 -0.74908,0.306256 -1.32262,0.422667 -1.70548,0.3461 -0.29535,-0.05903 -0.35084,-0.15134 -0.47694,-0.792224 -0.18461,-0.938534 -0.19084,-5.840056 -0.008,-6.767594 0.0764,-0.389229 0.19886,-1.014182 0.27217,-1.388382 0.0732,-0.3742 0.20065,-0.894216 0.28302,-1.155717 l 0.14968,-0.475477 1.90554,-0.03116 c 1.04802,-0.01712 2.15604,-0.09897 2.46219,-0.181928 1.44378,-0.391228 1.76386,-0.511186 2.90687,-1.090845 1.95698,-0.992452 3.6904,-2.834897 4.86496,-5.170099 0.52607,-1.045929 1.25857,-3.12005 1.50616,-4.264806 0.081,-0.374198 0.19589,-0.903142 0.2555,-1.175286 0.0597,-0.272142 0.12398,-0.771929 0.14279,-1.110777 l 0.0341,-0.616092 -0.49469,-0.17468 c -0.35473,-0.125212 -1.5197,-0.185066 -2.73255,-0.181567 z" /></g></svg>
